<svg version="1.2" xmlns="http://www.w3.org/2000/svg" viewBox="0 0 1000 1000" width="1000" height="1000">
	<title>2689520-ai</title>
	<style>
		.s0 { fill: #ffffff } 
		.s1 { fill: #cce1f7 } 
		.s2 { fill: #ff7c78 } 
		.s3 { fill: #01305a } 
		.s4 { fill: #3b73ab } 
		.s5 { fill: #00528a } 
	</style>
	<g id="BACKGROUND">
		<g id="&lt;Group&gt;">
			<path id="&lt;Path&gt;" class="s0" d="m1000 1000h-1000v-1000h1000z"/>
		</g>
	</g>
	<g id="OBJECTS">
		<g id="&lt;Group&gt;">
			<g id="&lt;Group&gt;">
				<path id="&lt;Path&gt;" class="s1" d="m621.5 414.6c170.3-35.3 280 4.3 266.1 130.6-13.9 126.3-261.3 267.6-499 190.2-237.8-77.3-291.7-382.6-177.7-506.4q1.7-1.9 3.4-3.7c79.5-83.4 218.2-47.4 248.9 64.2 19.2 69.5 62.1 145 158.3 125.1z"/>
				<path id="&lt;Path&gt;" class="s1" d="m794.4 329.9c25.2 36.1-8.2 63.9-71.1 53.5-16.5-2.7-28.1-8.2-36.2-14.8-24.6-20-15.8-48.2 16-53.4 31.6-5.1 75.7-7.6 91.3 14.7z"/>
				<path id="&lt;Path&gt;" class="s1" d="m155.6 590.7c-19.6 39.5-60 23.5-81-36.8-5.5-15.8-6.2-28.6-4.3-38.9 5.8-31.1 34.8-36.9 54.6-11.4 19.6 25.2 42.8 62.8 30.7 87.1z"/>
				<path id="&lt;Compound Path&gt;" fill-rule="evenodd" class="s1" d="m542 255.7c-1.5 3.1-3.4 6.1-5.7 8.7l8.7 13-14.2 9.6-8.4-12.4c-3.5 1.5-7.2 2.4-10.9 2.8l-3.4 17.3-16.8-3.3 3.1-15.9c-4.6-1.6-8.8-4.1-12.6-7.3l-13 8.7-9.5-14.2 12.4-8.4c-1.8-4.2-2.8-8.6-3-13l-14.3-2.8 3.3-16.9 13.8 2.7c1.9-4.7 4.8-9 8.6-12.7l-8.4-12.5 14.3-9.6 8.7 13c3.4-1.1 6.8-1.8 10.3-1.9l3.2-16.3 16.8 3.3-3.1 15.8c4.7 1.9 9.1 4.8 12.8 8.6l12.5-8.4 9.5 14.3-13 8.7c1.4 4 2.1 8.2 2.1 12.3l15.8 3.1-3.3 16.9zm-21.8-25.4c-4.8-7.2-14.6-9.1-21.8-4.3-7.2 4.8-9.1 14.6-4.3 21.9 4.9 7.2 14.7 9.1 21.9 4.2 7.2-4.8 9.1-14.6 4.2-21.8z"/>
				<path id="&lt;Compound Path&gt;" fill-rule="evenodd" class="s1" d="m454.2 179.7q-1.2 2.6-3.2 4.8l4.8 7.1-7.8 5.2-4.5-6.8q-3 1.2-6 1.6l-1.9 9.4-9.2-1.8 1.7-8.7c-2.4-0.9-4.8-2.2-6.8-4l-7.1 4.8-5.3-7.8 6.8-4.6c-0.9-2.3-1.5-4.7-1.6-7.1l-7.8-1.5 1.8-9.2 7.5 1.5c1.1-2.6 2.7-5 4.7-7l-4.5-6.8 7.7-5.3 4.8 7.1q2.8-0.9 5.6-1.1l1.8-8.8 9.2 1.8-1.7 8.6c2.6 1 4.9 2.6 7 4.7l6.8-4.6 5.2 7.8-7.1 4.8c0.8 2.2 1.1 4.5 1.1 6.7l8.7 1.7-1.8 9.2zm-11.9-13.9c-2.7-3.9-8-4.9-12-2.3-3.9 2.7-5 8-2.3 11.9 2.6 4 8 5 11.9 2.4 4-2.7 5-8 2.4-12z"/>
				<path id="&lt;Compound Path&gt;" fill-rule="evenodd" class="s1" d="m917.3 226.7q-1.2 2.6-3.1 4.8l4.7 7.1-7.7 5.3-4.6-6.9q-2.9 1.3-6 1.6l-1.8 9.4-9.2-1.8 1.7-8.7c-2.5-0.8-4.8-2.2-6.9-3.9l-7.1 4.7-5.2-7.8 6.8-4.5c-1-2.3-1.5-4.7-1.7-7.1l-7.8-1.6 1.8-9.2 7.6 1.5c1-2.6 2.6-5 4.7-7l-4.6-6.8 7.8-5.2 4.8 7.1q2.7-0.9 5.6-1.1l1.7-8.9 9.2 1.8-1.7 8.6c2.6 1.1 5 2.7 7 4.7l6.8-4.5 5.2 7.8-7.1 4.7c0.8 2.2 1.2 4.5 1.2 6.8l8.6 1.7-1.8 9.2zm-11.9-13.9c-2.6-3.9-8-5-11.9-2.3-4 2.6-5 8-2.4 11.9 2.7 3.9 8 5 12 2.3 3.9-2.6 4.9-8 2.3-11.9z"/>
				<path id="&lt;Compound Path&gt;" fill-rule="evenodd" class="s1" d="m130 341.2q-1.3 2.6-3.2 4.8l4.8 7.1-7.8 5.2-4.6-6.8q-2.9 1.2-5.9 1.6l-1.9 9.4-9.2-1.8 1.7-8.7c-2.5-0.9-4.8-2.2-6.8-4l-7.1 4.8-5.3-7.8 6.8-4.6c-1-2.3-1.5-4.7-1.6-7.1l-7.8-1.5 1.8-9.2 7.5 1.4c1.1-2.5 2.7-4.9 4.7-6.9l-4.6-6.8 7.8-5.3 4.8 7.1q2.8-0.9 5.6-1.1l1.8-8.9 9.2 1.9-1.7 8.6c2.6 1 4.9 2.6 7 4.7l6.8-4.6 5.2 7.8-7.1 4.8c0.7 2.2 1.1 4.5 1.1 6.7l8.7 1.7-1.8 9.2zm-11.9-13.9c-2.7-3.9-8-4.9-12-2.3-3.9 2.6-5 8-2.3 11.9 2.6 4 8 5 11.9 2.4 4-2.7 5-8 2.4-12z"/>
			</g>
		</g>
		<path id="&lt;Path&gt;" class="s1" d="m499.4 800.9c-152.6 0-286-6.7-358.4-16.6-7.6-1-9.9 10-2.5 12.1 49.4 14.1 119.3 15.1 164 19.9 77 8.3 189 6 196.9 32.8 7.8 26.9 8.6 55.3-69.9 51.3-85.2-4.4-71-51.3-71-51.3-79 2.3-267-16.2-287.8-48.2-20.6-31.6 17.1-38.9 18-39.1q0 0 0 0c31.8-16 203.6-28.3 410.7-28.3 229.7 0 415.9 15.1 415.9 33.7 0 18.6-186.2 33.7-415.9 33.7z"/>
		<g id="&lt;Group&gt;">
			<g id="&lt;Group&gt;">
				<g id="&lt;Group&gt;">
					<g id="&lt;Group&gt;">
						<path id="&lt;Path&gt;" class="s0" d="m809 355.1v325.1c0 9.5-7.7 17.3-17.3 17.3h-576.4c-4.1 0-7.8-1.4-10.7-3.7q-1.2-0.9-2.2-2c-2.8-3.1-4.4-7.2-4.4-11.6v-325.1c0-9.5 7.7-17.3 17.3-17.3h576.4c3.2 0 6.2 0.9 8.8 2.4 2.4 1.4 4.4 3.4 5.9 5.8 1.7 2.6 2.6 5.8 2.6 9.1z"/>
					</g>
					<g id="&lt;Group&gt;">
						<g id="&lt;Group&gt;">
							<path id="&lt;Compound Path&gt;" class="s2" d="m407.7 581.5h-23.6v30.4h-58.2v-30.4h-92.2v-38.1l75.5-109.2h61.4l-67 100.8h24.1v-27.2h56.4v27.2h23.6z"/>
						</g>
						<g id="&lt;Group&gt;">
							<path id="&lt;Compound Path&gt;" fill-rule="evenodd" class="s2" d="m416.1 523c0-58.9 33.5-92.9 80.5-92.9 47 0 80.5 34 80.5 92.9 0 59-33.5 93-80.5 93-47 0-80.5-34-80.5-93zm100.8 0c0-34.2-8.6-44.9-20.3-44.9-11.7 0-20.3 10.7-20.3 44.9 0 34.3 8.6 45 20.3 45 11.7 0 20.3-10.7 20.3-45z"/>
						</g>
						<g id="&lt;Group&gt;">
							<path id="&lt;Compound Path&gt;" class="s2" d="m764 581.5h-23.6v30.4h-58.2v-30.4h-92.2v-38.1l75.5-109.2h61.4l-67 100.8h24.1v-27.2h56.4v27.2h23.6z"/>
						</g>
					</g>
				</g>
				<g id="&lt;Group&gt;" style="mix-blend-mode: screen">
					<path id="&lt;Path&gt;" class="s3" d="m589.2 711.1v0.5c0 4.2-2.8 7.6-6.2 7.6h-162.5c-3.4 0-6.2-3.4-6.2-7.6v-0.5z"/>
				</g>
				<g id="&lt;Group&gt;">
					<g id="&lt;Group&gt;" style="opacity: .2">
						<path id="&lt;Path&gt;" class="s3" d="m809 355.1v19.2h-611v-19.2c0-3.6 1.1-7.1 3.1-9.9 3.1-4.4 8.3-7.4 14.2-7.4h576.4c5.9 0 11.1 3 14.2 7.4 2 2.8 3.1 6.3 3.1 9.9z"/>
					</g>
					<g id="&lt;Group&gt;">
						<path id="&lt;Path&gt;" class="s0" d="m661.4 361.9h-324.1c-0.8 0-1.5-0.7-1.5-1.6v-6.6c0-0.9 0.7-1.5 1.5-1.5h324.1c0.8 0 1.5 0.6 1.5 1.5v6.6c0 0.9-0.7 1.6-1.5 1.6z"/>
					</g>
					<g id="&lt;Group&gt;">
						<path id="&lt;Path&gt;" class="s3" d="m257.7 357v3.6c0 1-1.1 1.7-2 1.2l-3.1-1.8-3.1-1.8c-0.9-0.5-0.9-1.8 0-2.4l3.1-1.7 3.1-1.8c0.9-0.6 2 0.1 2 1.1z"/>
					</g>
					<g id="&lt;Group&gt;">
						<path id="&lt;Path&gt;" class="s3" d="m273.9 353.4c0-1 1.1-1.7 2-1.1l3.1 1.8 3.1 1.7c0.9 0.6 0.9 1.9 0 2.4l-3.1 1.8-3.1 1.8c-0.9 0.5-2-0.2-2-1.2v-3.6z"/>
					</g>
				</g>
				<g id="&lt;Group&gt;" style="opacity: .2">
					<path id="&lt;Path&gt;" class="s3" d="m805.9 345.2h-604.8c3.1-4.4 8.3-7.4 14.2-7.4h576.4c5.9 0 11.1 3 14.2 7.4z"/>
				</g>
				<g id="&lt;Group&gt;" style="opacity: .1">
					<path id="&lt;Path&gt;" class="s3" d="m683.9 669.7h-369.1c-7.2 0-13.1-5.8-13.1-13 0-7.3 5.9-13.1 13.1-13.1h369.1c7.2 0 13.1 5.8 13.1 13.1 0 7.2-5.9 13-13.1 13z"/>
				</g>
			</g>
		</g>
		<g id="&lt;Group&gt;">
			<g id="&lt;Group&gt;">
				<g id="&lt;Group&gt;">
					<g id="&lt;Group&gt;">
						<path id="&lt;Path&gt;" class="s2" d="m914.3 455.9v32.3c0 4.3-3.5 7.8-7.8 7.8h-58.7l-17.7 6.3c-1.8 0.7-3.6-1.1-2.9-2.9l6.7-17.3v-26.2c0-4.3 3.5-7.7 7.8-7.7h64.8c4.3 0 7.8 3.4 7.8 7.7z"/>
					</g>
				</g>
				<g id="&lt;Group&gt;" style="mix-blend-mode: screen">
					<g id="&lt;Group&gt;">
						<path id="&lt;Path&gt;" class="s2" d="m863.2 473c0 3.1-2.5 5.6-5.6 5.6-3 0-5.6-2.5-5.6-5.6 0-3.1 2.6-5.6 5.6-5.6 3.1 0 5.6 2.5 5.6 5.6z"/>
						<path id="&lt;Path&gt;" class="s2" d="m881 473c0 3.1-2.5 5.6-5.6 5.6-3.1 0-5.6-2.5-5.6-5.6 0-3.1 2.5-5.6 5.6-5.6 3.1 0 5.6 2.5 5.6 5.6z"/>
						<path id="&lt;Path&gt;" class="s2" d="m898.7 473c0 3.1-2.5 5.6-5.6 5.6-3.1 0-5.6-2.5-5.6-5.6 0-3.1 2.5-5.6 5.6-5.6 3.1 0 5.6 2.5 5.6 5.6z"/>
					</g>
				</g>
			</g>
			<g id="&lt;Group&gt;">
				<g id="&lt;Group&gt;">
					<path id="&lt;Compound Path&gt;" fill-rule="evenodd" class="s2" d="m617.7 259.1c0-7.3 6-13.2 13.3-13.2 7.3 0 13.2 5.9 13.2 13.2 0 7.3-5.9 13.2-13.2 13.2-7.3 0-13.3-5.9-13.3-13.2zm4.2 0c0 5 4.1 9.1 9.1 9.1 5 0 9-4.1 9-9.1 0-5-4-9.1-9-9.1-5 0-9.1 4.1-9.1 9.1z"/>
				</g>
				<g id="&lt;Group&gt;">
					<path id="&lt;Compound Path&gt;" fill-rule="evenodd" class="s2" d="m573.6 202.5c0-7.3 5.9-13.2 13.2-13.2 7.3 0 13.2 5.9 13.2 13.2 0 7.3-5.9 13.2-13.2 13.2-7.3 0-13.2-5.9-13.2-13.2zm4.1 0c0 5 4.1 9 9.1 9 5 0 9-4 9-9 0-5-4-9.1-9-9.1-5 0-9.1 4.1-9.1 9.1z"/>
				</g>
				<g id="&lt;Group&gt;">
					<g id="&lt;Group&gt;">
						<g id="&lt;Group&gt;">
							<path id="&lt;Path&gt;" class="s4" d="m575.6 263.7v-9.2c0-1.1 1-2 2.1-2 1.1 0 2.1 0.9 2.1 2v9.2c0 1.1-1 2.1-2.1 2.1-1.1 0-2.1-1-2.1-2.1z"/>
						</g>
						<g id="&lt;Group&gt;">
							<path id="&lt;Path&gt;" class="s4" d="m575.6 279.7v-9.2c0-1.1 1-2 2.1-2 1.1 0 2.1 0.9 2.1 2v9.2c0 1.1-1 2.1-2.1 2.1-1.1 0-2.1-1-2.1-2.1z"/>
						</g>
					</g>
					<g id="&lt;Group&gt;">
						<g id="&lt;Group&gt;">
							<path id="&lt;Path&gt;" class="s4" d="m562.8 267.1c0-1.1 0.9-2.1 2.1-2.1h8.2c1.1 0 2.1 1 2.1 2.1 0 1.2-1 2.1-2.1 2.1h-8.2c-1.2 0-2.1-0.9-2.1-2.1z"/>
						</g>
						<g id="&lt;Group&gt;">
							<path id="&lt;Path&gt;" class="s4" d="m580.2 267.1c0-1.1 1-2.1 2.1-2.1h8.2c1.2 0 2.1 1 2.1 2.1 0 1.2-0.9 2.1-2.1 2.1h-8.2c-1.1 0-2.1-0.9-2.1-2.1z"/>
						</g>
					</g>
				</g>
				<g id="&lt;Group&gt;">
					<g id="&lt;Group&gt;">
						<g id="&lt;Group&gt;">
							<g id="&lt;Group&gt;">
								<path id="&lt;Path&gt;" class="s5" d="m631.4 202.7v-9.1c0-1.1 1-2.1 2.1-2.1 1.2 0 2.1 1 2.1 2.1v9.1c0 1.2-0.9 2.1-2.1 2.1-1.1 0-2.1-0.9-2.1-2.1z"/>
							</g>
							<g id="&lt;Group&gt;">
								<path id="&lt;Path&gt;" class="s5" d="m631.4 218.7v-9.1c0-1.1 1-2.1 2.1-2.1 1.2 0 2.1 1 2.1 2.1v9.1c0 1.2-0.9 2.1-2.1 2.1-1.1 0-2.1-0.9-2.1-2.1z"/>
							</g>
						</g>
						<g id="&lt;Group&gt;">
							<g id="&lt;Group&gt;">
								<path id="&lt;Path&gt;" class="s5" d="m618.6 206.2c0-1.2 0.9-2.1 2.1-2.1h8.2c1.1 0 2.1 0.9 2.1 2.1 0 1.1-1 2-2.1 2h-8.2c-1.2 0-2.1-0.9-2.1-2z"/>
							</g>
							<g id="&lt;Group&gt;">
								<path id="&lt;Path&gt;" class="s5" d="m636.1 206.2c0-1.2 0.9-2.1 2-2.1h8.3c1.1 0 2 0.9 2 2.1 0 1.1-0.9 2-2 2h-8.3c-1.1 0-2-0.9-2-2z"/>
							</g>
						</g>
					</g>
				</g>
			</g>
			<g id="&lt;Group&gt;">
				<g id="&lt;Group&gt;">
					<g id="&lt;Group&gt;">
						<path id="&lt;Compound Path&gt;" fill-rule="evenodd" class="s2" d="m235.6 168.5c0-7.3 5.9-13.2 13.2-13.2 7.3 0 13.2 5.9 13.2 13.2 0 7.3-5.9 13.2-13.2 13.2-7.3 0-13.2-5.9-13.2-13.2zm4.1 0c0 5 4.1 9.1 9.1 9.1 5 0 9.1-4.1 9.1-9.1 0-5-4.1-9.1-9.1-9.1-5 0-9.1 4.1-9.1 9.1z"/>
					</g>
				</g>
				<g id="&lt;Group&gt;">
					<path id="&lt;Compound Path&gt;" fill-rule="evenodd" class="s4" d="m184.7 193.4c0-7.3 6-13.2 13.3-13.2 7.2 0 13.2 5.9 13.2 13.2 0 7.3-6 13.2-13.2 13.2-7.3 0-13.3-5.9-13.3-13.2zm4.2 0c0 5 4.1 9.1 9.1 9.1 5 0 9-4.1 9-9.1 0-5-4-9.1-9-9.1-5 0-9.1 4.1-9.1 9.1z"/>
				</g>
				<g id="&lt;Group&gt;">
					<g id="&lt;Group&gt;">
						<g id="&lt;Group&gt;">
							<path id="&lt;Path&gt;" class="s2" d="m175.1 226.9v-9.1c0-1.2 0.9-2.1 2-2.1 1.2 0 2.1 0.9 2.1 2.1v9.1c0 1.2-0.9 2.1-2.1 2.1-1.1 0-2-0.9-2-2.1z"/>
						</g>
						<g id="&lt;Group&gt;">
							<path id="&lt;Path&gt;" class="s2" d="m175.1 242.9v-9.1c0-1.2 0.9-2.1 2-2.1 1.2 0 2.1 0.9 2.1 2.1v9.1c0 1.2-0.9 2.1-2.1 2.1-1.1 0-2-0.9-2-2.1z"/>
						</g>
					</g>
					<g id="&lt;Group&gt;">
						<g id="&lt;Group&gt;">
							<path id="&lt;Path&gt;" class="s2" d="m162.2 230.3c0-1.1 0.9-2 2.1-2h8.2c1.2 0 2.1 0.9 2.1 2 0 1.2-0.9 2.1-2.1 2.1h-8.2c-1.2 0-2.1-0.9-2.1-2.1z"/>
						</g>
						<g id="&lt;Group&gt;">
							<path id="&lt;Path&gt;" class="s2" d="m179.7 230.3c0-1.1 0.9-2 2-2h8.3c1.1 0 2 0.9 2 2 0 1.2-0.9 2.1-2 2.1h-8.3c-1.1 0-2-0.9-2-2.1z"/>
						</g>
					</g>
				</g>
				<g id="&lt;Group&gt;">
					<g id="&lt;Group&gt;">
						<g id="&lt;Group&gt;">
							<g id="&lt;Group&gt;">
								<path id="&lt;Path&gt;" class="s5" d="m212.2 141.4v-9.2c0-1.1 1-2.1 2.1-2.1 1.2 0 2.1 1 2.1 2.1v9.2c0 1.1-0.9 2-2.1 2-1.1 0-2.1-0.9-2.1-2z"/>
							</g>
							<g id="&lt;Group&gt;">
								<path id="&lt;Path&gt;" class="s5" d="m212.2 157.4v-9.2c0-1.1 1-2 2.1-2 1.2 0 2.1 0.9 2.1 2v9.2c0 1.1-0.9 2-2.1 2-1.1 0-2.1-0.9-2.1-2z"/>
							</g>
						</g>
						<g id="&lt;Group&gt;">
							<g id="&lt;Group&gt;">
								<path id="&lt;Path&gt;" class="s5" d="m199.4 144.8c0-1.1 0.9-2.1 2.1-2.1h8.2c1.1 0 2.1 1 2.1 2.1 0 1.1-1 2.1-2.1 2.1h-8.2c-1.2 0-2.1-1-2.1-2.1z"/>
							</g>
							<g id="&lt;Group&gt;">
								<path id="&lt;Path&gt;" class="s5" d="m216.9 144.8c0-1.1 0.9-2.1 2-2.1h8.2c1.2 0 2.1 1 2.1 2.1 0 1.1-0.9 2.1-2.1 2.1h-8.2c-1.1 0-2-1-2-2.1z"/>
							</g>
						</g>
					</g>
				</g>
			</g>
		</g>
	</g>
</svg>